<?xml version="1.0" encoding="utf-8"?>
<svg viewBox="-26.071 -11.588 103.708 103.709" xmlns="http://www.w3.org/2000/svg">
  <rect x="-42.584" y="-13.76" width="138.47" height="110.66" style="stroke: rgb(0, 0, 0); fill: #1d2021';"/>
  <path d="M 14.775 82.092 L 1.59 82.092 L 1.59 0.759 L 28.875 0.759 C 31.002 0.749 33.125 0.894 35.233 1.191 C 38.627 1.686 41.577 2.608 44.084 3.958 C 46.058 5 47.87 6.328 49.462 7.896 C 50.827 9.255 51.985 10.811 52.896 12.508 C 54.806 16.092 55.793 20.096 55.769 24.159 C 55.769 24.192 55.769 24.224 55.769 24.258 C 55.779 26.532 55.495 28.799 54.924 31.001 C 54.72 31.767 54.48 32.523 54.202 33.265 C 53.157 36.051 51.569 38.509 49.437 40.642 C 47.978 42.083 46.307 43.291 44.479 44.222 C 43.445 44.755 42.374 45.215 41.278 45.603 C 39.577 46.196 37.823 46.629 36.043 46.897 C 34.346 47.16 32.536 47.314 30.61 47.355 C 30.249 47.362 29.888 47.366 29.528 47.366 L 14.775 47.366 L 14.775 82.092 Z M 14.775 12.117 L 14.775 36.53 L 28.483 36.53 C 31.703 36.53 34.336 36.028 36.382 35.028 C 37.603 34.443 38.706 33.634 39.63 32.642 C 40.165 32.057 40.63 31.412 41.017 30.72 C 42.061 28.848 42.583 26.738 42.583 24.389 C 42.591 23.166 42.433 21.949 42.114 20.769 C 41.859 19.844 41.49 18.956 41.017 18.122 C 40.122 16.573 38.862 15.264 37.348 14.314 C 37.033 14.112 36.711 13.923 36.382 13.748 C 34.643 12.824 32.511 12.292 29.987 12.153 C 29.529 12.129 29.071 12.116 28.614 12.117 L 14.775 12.117 Z" vectoreffect="non-scaling-stroke" style="fill: rgb(250, 250, 250);"/>
</svg>