<?xml version="1.0" encoding="utf-8"?>
<svg viewBox="17.927 0 155.976 173.832" xmlns="http://www.w3.org/2000/svg">
  <path d="M 85.037 128.43 L 71.852 128.43 L 71.852 47.097 L 99.137 47.097 C 101.264 47.087 103.387 47.232 105.495 47.529 C 108.889 48.024 111.839 48.946 114.346 50.296 C 116.32 51.338 118.132 52.666 119.724 54.234 C 121.089 55.593 122.247 57.149 123.158 58.846 C 125.068 62.43 126.055 66.434 126.031 70.497 C 126.031 70.53 126.031 70.562 126.031 70.596 C 126.041 72.87 125.757 75.137 125.186 77.339 C 124.982 78.105 124.742 78.861 124.464 79.603 C 123.419 82.389 121.831 84.847 119.699 86.98 C 118.24 88.421 116.569 89.629 114.741 90.56 C 113.707 91.093 112.636 91.553 111.54 91.941 C 109.839 92.534 108.085 92.967 106.305 93.235 C 104.608 93.498 102.798 93.652 100.872 93.693 C 100.511 93.7 100.15 93.704 99.79 93.704 L 85.037 93.704 L 85.037 128.43 Z M 85.037 58.455 L 85.037 82.868 L 98.745 82.868 C 101.965 82.868 104.598 82.366 106.644 81.366 C 107.865 80.781 108.968 79.972 109.892 78.98 C 110.427 78.395 110.892 77.75 111.279 77.058 C 112.323 75.186 112.845 73.076 112.845 70.727 C 112.853 69.504 112.695 68.287 112.376 67.107 C 112.121 66.182 111.752 65.294 111.279 64.46 C 110.384 62.911 109.124 61.602 107.61 60.652 C 107.295 60.45 106.973 60.261 106.644 60.086 C 104.905 59.162 102.773 58.63 100.249 58.491 C 99.791 58.467 99.333 58.454 98.876 58.455 L 85.037 58.455 Z" vectoreffect="non-scaling-stroke" style="fill: rgb(250, 250, 250);"/>
  <g id="SVGRepo_iconCarrier" transform="matrix(0.727134, 0, -0.017521, 0.712881, 28.616635, 20.242083)" style=""/>
  <g id="g-1" stroke-width="0" transform="matrix(0.86852, 0, 0, 0.86852, 19.374737, 6.132075)" style=""/>
  <g id="g-2" stroke-linecap="round" stroke-linejoin="round" transform="matrix(0.86852, 0, 0, 0.86852, 19.374737, 6.132075)" style=""/>
  <g id="g-3" transform="matrix(-0.005618, 0.868506, -0.868506, -0.005618, 176.430072, 7.212565)" style="">
    <path d="M0,92.375l46.188-80h92.378l46.185,80l-46.185,80H46.188L0,92.375z" style="fill: rgba(0, 0, 0, 0); stroke: #1d2021'; stroke-width: 11.1817px;"/>
  </g>
</svg>